{"title":"Fatal Call 2012 DVDRip XviD-iND","uid":8743799,"size":849946911,"categoryP":"video","categoryS":"movies","magnet":"?xt=urn:btih:f80f2354e98a2e36c87c759124b02cb75388d739&amp;dn=Fatal+Call+2012+DVDRip+XviD-iND&amp;tr=udp%3A%2F%2Ftracker.openbittorrent.com%3A80&amp;tr=udp%3A%2F%2Fopen.demonii.com%3A1337&amp;tr=udp%3A%2F%2Ftracker.coppersurfer.tk%3A6969&amp;tr=udp%3A%2F%2Fexodus.desync.com%3A6969","seeders":1,"leechers":0,"uploader":"xxxlavalxxx","files":-1,"time":1374865043,"description":" &lt;a href=&quot;\nhttp://www.imdb.com/title/tt2059193/&quot; rel=&quot;nofollow&quot; target=&quot;_NEW&quot;&gt;\nhttp://www.imdb.com/title/tt2059193/&lt;/a&gt;\n\n\nA small town man's affair with a seductive woman spins his life out of control. \nLeaving his small-town roots to start a new life, Mitch meets the beautiful and seductive Amy at a happy hour and begins a tantalizing romance. Before long, Mitch learns that nothing is as it appears and, unable to trust anyone, finds himself on a nightmarish roller coaster ride, accused of murder and running from the law and a mysterious stranger out to kill him. Surviving by quick thinking and his wits, Mitch must confront both his past and present and find a solution before time runs out!\n\n\nDirector:\n Jack Snyder \n\nWriter:\n Jack Snyder \n\nStars:\n Jason London, Danielle Harris, Kevin Sorbo \n\nGenres:\n  Thriller \n\nCountry:\n USA \n\nLanguage:\n English \n\n\nFatal.Call.2012.DVDRip.XviD-iND\n\n\n Source: DVDR HK INC\n Genre.: Thriller\n \n\n\n General\n Complete name                            : Fatal Call 2012 DVDRip XviD-iND.mkv\n Format                                   : Matroska\n Format version                           : Version 2\n File size                                : 801 MiB\n Duration                                 : 1h 33mn\n Overall bit rate                         : 1 193 Kbps\n Encoded date                             : UTC 2013-07-22 23:53:53\n Writing application                      : mkvmerge v6.2.0 ('Promised Land')\n Writing library                          : libebml v1.3.0 + libmatroska v1.4.0\n\n Video\n ID                                       : 1\n Format                                   : AVC\n Format/Info                              : Advanced Video Codec\n Format profile                           : &lt;a class=&quot;__cf_email__&quot; href=&quot;/cdn-cgi/l/email-protection&quot; data-cfemail=&quot;9fd7f6f8f7dfd3acb1af&quot;&gt;[email&amp;#160;protected]&lt;/a&gt;&lt;script cf-hash='f9e31' type=&quot;text/javascript&quot;&gt;\n/* &lt;![CDATA[ */!function(){try{var t=&quot;currentScript&quot;in document?document.currentScript:function(){for(var t=document.getElementsByTagName(&quot;script&quot;),e=t.length;e--;)if(t[e].getAttribute(&quot;cf-hash&quot;))return t[e]}();if(t&amp;&amp;t.previousSibling){var e,r,n,i,c=t.previousSibling,a=c.getAttribute(&quot;data-cfemail&quot;);if(a){for(e=&quot;&quot;,r=parseInt(a.substr(0,2),16),n=2;a.length-n;n+=2)i=parseInt(a.substr(n,2),16)^r,e+=String.fromCharCode(i);e=document.createTextNode(e),c.parentNode.replaceChild(e,c)}}}catch(u){}}();/* ]]&gt; */&lt;/script&gt;\n Format settings, CABAC                   : Yes\n Format settings, ReFrames                : 4 frames\n Codec ID                                 : V_MPEG4/ISO/AVC\n Duration                                 : 1h 33mn\n Bit rate                                 : 1 000 Kbps\n Width                                    : 704 pixels\n Height                                   : 400 pixels\n Display aspect ratio                     : 16:9\n Frame rate                               : 23.976 fps\n Color space                              : YUV\n Chroma subsampling                       : 4:2:0\n Bit depth                                : 8 bits\n Scan type                                : Progressive\n Bits/(Pixel*Frame)                       : 0.148\n Stream size                              : 656 MiB (82%)\n Writing library                          : x264 core 133 r2334 a3ac64b\n Language                                 : English\n Default                                  : Yes\n Forced                                   : No\n\n Audio\n ID                                       : 2\n Format                                   : AC-3\n Format/Info                              : Audio Coding 3\n Mode extension                           : CM (complete main)\n Format settings, Endianness              : Big\n Codec ID                                 : A_AC3\n Duration                                 : 1h 33mn\n Bit rate mode                            : Constant\n Bit rate                                 : 192 Kbps\n Channel(s)                               : 2 channels\n Channel positions                        : Front: L R\n Sampling rate                            : 48.0 KHz\n Bit depth                                : 16 bits\n Compression mode                         : Lossy\n Delay relative to video                  : 380ms\n Stream size                              : 129 MiB (16%)\n Default                                  : Yes\n Forced                                   : No\n\n\n\nscreens\n\n\n    &lt;a href=&quot;\thttp://addpix.net/viewer.php?file=25821205734127001788.jpg&quot; rel=&quot;nofollow&quot; target=&quot;_NEW&quot;&gt;\thttp://addpix.net/viewer.php?file=25821205734127001788.jpg&lt;/a&gt;\n    &lt;a href=&quot;\thttp://addpix.net/viewer.php?file=69908111995369616493.jpg&quot; rel=&quot;nofollow&quot; target=&quot;_NEW&quot;&gt;\thttp://addpix.net/viewer.php?file=69908111995369616493.jpg&lt;/a&gt;\n    &lt;a href=&quot;\thttp://addpix.net/viewer.php?file=86270002206675863340.jpg&quot; rel=&quot;nofollow&quot; target=&quot;_NEW&quot;&gt;\thttp://addpix.net/viewer.php?file=86270002206675863340.jpg&lt;/a&gt;\n    &lt;a href=&quot;\thttp://addpix.net/viewer.php?file=08930322246021151521.jpg&quot; rel=&quot;nofollow&quot; target=&quot;_NEW&quot;&gt;\thttp://addpix.net/viewer.php?file=08930322246021151521.jpg&lt;/a&gt;\n    &lt;a href=&quot;\thttp://addpix.net/viewer.php?file=07608413559302425634.jpg&quot; rel=&quot;nofollow&quot; target=&quot;_NEW&quot;&gt;\thttp://addpix.net/viewer.php?file=07608413559302425634.jpg&lt;/a&gt;","torrent":{"xt":"urn:btih:f80f2354e98a2e36c87c759124b02cb75388d739","amp;dn":"Fatal+Call+2012+DVDRip+XviD-iND","amp;tr":["udp%3A%2F%2Ftracker.openbittorrent.com%3A80","udp%3A%2F%2Fopen.demonii.com%3A1337","udp%3A%2F%2Ftracker.coppersurfer.tk%3A6969","udp%3A%2F%2Fexodus.desync.com%3A6969"],"infoHash":"f80f2354e98a2e36c87c759124b02cb75388d739","infoHashBuffer":{"type":"Buffer","data":[248,15,35,84,233,138,46,54,200,124,117,145,36,176,44,183,83,136,215,57]},"announce":[],"urlList":[]}}